<svg width="960" height="540" xmlns="http://www.w3.org/2000/svg"><path fill="#1b1f22" d="M0 0h960v540H0z"/><path d="M105.3 22.2c13.6 37.8 0 88.5-33.3 112.8-33.2 24.3-86.1 22.1-117.1-2.3C-76.2 108.2-85.5 61.6-72.7 25c12.8-36.7 47.8-63.3 85.6-64.3 37.9-1 78.7 23.8 92.4 61.5zM347.3 327.1c9.7 26.6-1.6 63.4-24.4 78.6-22.9 15.3-57.2 8.9-81.5-9.2-24.4-18.1-38.8-48.1-31.4-71.6 7.5-23.5 36.7-40.5 66.8-40.7 30-.3 60.8 16.2 70.5 42.9zM608.4 137.5c12.8 35.6 5.8 81.7-23.4 104.6-29.2 23-80.5 22.8-110.7-.5-30.1-23.3-39.1-69.8-26.3-105.3s47.4-60.1 81.1-59.8c33.6.3 66.4 25.5 79.3 61zM821.5 380.1c9.6 31.4-5.1 68.9-32.9 89.4-27.9 20.5-68.9 24-95.1 5.4-26.1-18.6-37.3-59.3-26.4-92.5 10.9-33.1 43.9-58.7 77.4-58.8 33.4-.2 67.3 25.1 77 56.5zM1008.6 61.4c6.6 21.3-2.5 47-19.7 58.8-17.2 11.9-42.4 9.9-59.8-2.7-17.3-12.7-26.9-36-20.9-56.4 6-20.3 27.4-37.6 49.3-37.8 21.9-.1 44.4 16.8 51.1 38.1zM94.4 473.2c11.6 36.7-2.2 80.5-32 102.1-29.8 21.6-75.6 21-104.1-.4-28.4-21.4-39.4-63.6-28-99.9 11.3-36.3 45-66.7 80.3-67.3 35.3-.5 72.2 28.9 83.8 65.5z" stroke="#ea2417" fill="none" stroke-width="20"/></svg>