<svg width="540" height="960" xmlns="http://www.w3.org/2000/svg"><path fill="#1b1f22" d="M0 0h540v960H0z"/><path d="M621.1 95.9c11.2 34.7-5.1 77.9-36.3 100.6-31.2 22.8-77.4 25-108.2 3.3-30.8-21.7-46.2-67.4-34.2-103.3 12-35.9 51.3-62 90.2-61.9 38.9.1 77.4 26.5 88.5 61.3zM200 32.5c7.3 22.9 2.4 49.1-14.2 61.8-16.6 12.6-44.8 11.6-63.5-2.1-18.7-13.7-27.7-40.1-20.9-62.5 6.9-22.4 29.8-40.8 50.9-40.2 21.1.6 40.5 20.1 47.7 43zM613.4 909.9c8.5 28.6-8.1 62.8-34.5 81.6-26.5 18.8-62.8 22.2-86.4 5.6-23.7-16.6-34.6-53.1-24.9-83.5 9.7-30.4 40-54.5 72-55 31.9-.5 65.3 22.6 73.8 51.3zM361.4 571.5c7.2 24.6-5.6 53.2-26.6 67.9-21.1 14.7-50.4 15.6-72 1-21.5-14.5-35.2-44.4-27.7-69.5 7.4-25 36.2-45.1 64.1-44.8 27.9.2 55 20.9 62.2 45.4zM134.1 789.3c8.3 22.9-2.3 54.8-24.7 71.2-22.3 16.4-56.3 17.2-78.6 1.2C8.5 845.6-2 812.8 6.7 789.4c8.6-23.3 36.5-37 64.1-37 27.6.1 54.9 14 63.3 36.9zM62.7 379.9c7.4 21.5.8 48.5-17.5 62.6-18.3 14-48.4 15.1-67.6 1.2-19.2-14-27.5-42.9-19.7-64.9 7.7-21.9 31.4-36.9 53.8-36.5 22.5.4 43.7 16.2 51 37.6z" stroke="#ea2417" fill="none" stroke-width="20"/></svg>